<svg data-name="Layer 1" viewBox="0 0 25 25" xmlns="http://www.w3.org/2000/svg"><path d="M25 16.22c0-3.2-2.93-4.44-4.86-5.27-1.21-.51-1.21-1-1.21-1.38a1.81 1.81 0 0 1 .69-1.21A4.56 4.56 0 0 0 21 4.78a4.5 4.5 0 1 0-9 0 5.83 5.83 0 0 0 .38 2.27 5.88 5.88 0 0 1 1.33 1.74 4.69 4.69 0 0 1 .38 1 6.6 6.6 0 0 1 .3 2 6 6 0 0 1-1.85 4.62 1.85 1.85 0 0 0-.14.14l.27.12c.56.24 1.13.5 1.7.81a5.45 5.45 0 0 0-.37 1.4 17.89 17.89 0 0 0-1.9-.93c-1.21-.51-1.21-1-1.21-1.38a1.84 1.84 0 0 1 .69-1.21A4.55 4.55 0 0 0 13 11.78a4.51 4.51 0 1 0-9 0 4.59 4.59 0 0 0 1.26 3.58c.35.32.82.8.82 1.21s0 .83-1.29 1.38C3 18.71 0 20 0 23.22v.24A1.57 1.57 0 0 0 1.55 25h13.91a1.55 1.55 0 0 0 1.3-.74 5.49 5.49 0 0 0 7.84-6.79 1.52 1.52 0 0 0 .39-1ZM19.5 24a4.5 4.5 0 1 1 4.5-4.5 4.5 4.5 0 0 1-4.5 4.5Z" fill="#d5b96c" class="fill-494b4c"></path><path d="M20 17h-1v2h-2v1h2v2h1v-2h2v-1h-2v-2z" fill="#dedede" class="fill-494b4c"></path></svg>