<svg viewBox="0 0 128 128" xml:space="preserve" xmlns="http://www.w3.org/2000/svg"><path d="M15.371 118.18h39.882c-7.395-3.017-14.39-4.496-21.206-4.496-7.029 0-13.465 2.144-18.676 4.496zM72.754 118.18h39.883c-5.212-2.351-11.647-4.496-18.68-4.496-6.814 0-13.808 1.479-21.203 4.496z" fill="#d5b96c" class="fill-000000"></path><path d="M127.914 121.96c-1.59-8.982-7.911-37.279-9.482-46.138-.477-2.673-2.62-4.815-5.073-5.246.131.735 7.934 40.144 9.559 48.966.021.062.018.134.032.199.009.04.013.08.02.121.018.105.052.206.052.317a2 2 0 0 1-2 2H7.021l-.016.002c-.012 0-.023-.005-.035-.006a1.963 1.963 0 0 1-.5-.078c-.046-.013-.09-.025-.135-.042a1.991 1.991 0 0 1-.476-.241c-.009-.006-.019-.008-.027-.014-.023-.017-.038-.041-.061-.059a2.003 2.003 0 0 1-.285-.275c-.031-.036-.062-.07-.09-.109a1.99 1.99 0 0 1-.24-.418c-.01-.023-.014-.048-.022-.071a2.01 2.01 0 0 1-.117-.556c-.003-.045-.013-.087-.013-.133 0-.105.015-.208.031-.31.002-.017-.001-.033.002-.05a.433.433 0 0 1 .007-.035l.002-.015c1.685-9.159 9.653-48.494 9.781-49.214-2.531.352-4.772 2.525-5.263 5.269-1.573 8.877-7.893 37.173-9.479 46.131-.272 1.522.106 2.993 1.067 4.141C2.165 127.307 3.728 128 5.44 128h117.12c1.714 0 3.277-.693 4.289-1.903.96-1.149 1.338-2.619 1.065-4.137z" fill="#dedede" class="fill-000000"></path><path d="M86.335 59.71c-9.42 0-16.943 4.833-20.332 8.068v49.046c9.831-4.801 19.003-7.141 27.954-7.141 9.754 0 18.255 3.655 24.316 6.775-1.36-7.205-9.399-48.253-9.603-49.433-3.373-2.645-12.302-7.315-22.335-7.315zm-.634 12.774c.336.831.721 1.545 1.162 1.986h.001l.017.014C88.855 76.43 96 77.334 96 77.334s-7.182.91-9.136 2.863h-.001C84.909 82.154 84 89.334 84 89.334s-.908-7.18-2.863-9.137c-1.955-1.953-9.136-2.863-9.136-2.863s7.144-.904 9.119-2.85l.017-.014c.441-.441.826-1.155 1.162-1.986.251-.62.473-1.302.667-2 .698-2.514 1.034-5.15 1.034-5.15s.336 2.637 1.034 5.15c.194.699.416 1.38.667 2zM62.003 116.823V67.782l-.001-.001c-3.39-3.235-10.913-8.07-20.333-8.07-9.883 0-18.695 4.532-22.181 7.196v.052c0 .113-8.351 42.131-9.752 49.5 6.062-3.121 14.561-6.775 24.311-6.775 8.954 0 18.127 2.338 27.956 7.139-.001 0-.001 0 0 0zM32.417 56.845c.146.734.266 1.41.356 1.961.153.933.229 1.528.229 1.528s.083-.647.248-1.642a61 61 0 0 1 .394-2.127c.606-2.982 1.65-6.886 3.176-8.413v-.001c2.609-2.606 12.182-3.817 12.182-3.817s-9.573-1.211-12.181-3.817c-2.609-2.608-3.819-12.183-3.819-12.183s-1.209 9.573-3.816 12.181v.001c-2.609 2.608-12.183 3.818-12.183 3.818s9.574 1.211 12.182 3.818c1.573 1.574 2.635 5.68 3.232 8.693zM69.001 44s1.667-13.164 5.25-16.75h.001C77.835 23.666 91 22 91 22s-13.165-1.665-16.748-5.25h-.001C70.666 13.165 69.001 0 69.001 0s-1.664 13.163-5.25 16.749S47.001 22 47.001 22s13.164 1.666 16.75 5.25c3.586 3.586 5.25 16.75 5.25 16.75zM94.137 40.198C96.092 42.154 97 49.334 97 49.334s.909-7.18 2.864-9.136c1.954-1.956 9.135-2.864 9.135-2.864s-7.181-.908-9.135-2.863C97.909 32.515 97 25.334 97 25.334s-.908 7.18-2.863 9.136C92.182 36.426 85 37.334 85 37.334s7.182.909 9.137 2.864z" fill="#d5b96c" class="fill-000000"></path></svg>