<svg width="70" height="90" viewBox="0 0 70 90" fill="none" xmlns="http://www.w3.org/2000/svg">
<path d="M18.018 76.377V74.773C18.018 72.889 19.125 71.255 20.754 70.519C20.111 68.846 20.488 66.899 21.833 65.566L24.152 63.25C25.015 62.384 26.22 61.889 27.459 61.889C28.022 61.889 28.575 61.99 29.093 62.182C29.82 60.547 31.46 59.434 33.357 59.434H36.64C38.528 59.434 40.164 60.545 40.899 62.179C41.419 61.983 41.977 61.88 42.547 61.88C43.803 61.88 44.979 62.371 45.844 63.245L48.169 65.566C49.502 66.898 49.873 68.837 49.24 70.511C50.872 71.239 51.982 72.877 51.982 74.773V76.377C61.899 76.153 69.267 74.609 69.267 63.953C69.267 52.164 60.247 42.483 48.729 41.43C48.639 45.556 42.527 48.882 35 48.882C27.471 48.882 21.359 45.556 21.27 41.43C9.75299 42.483 0.730988 52.164 0.730988 63.953C0.731988 74.609 8.10099 76.153 18.018 76.377Z" fill="#f4d47c"/>
<path d="M35 0C26.333 0 19.154 6.705 17.889 15.456C17.758 16.358 17.692 17.281 17.692 18.22C17.692 18.603 17.707 18.98 17.727 19.356C17.76 19.906 17.811 20.449 17.89 20.984C17.902 21.148 17.916 21.309 17.932 21.471C19.021 33.823 26.248 43.365 35 43.365C43.75 43.365 50.977 33.823 52.07 21.472C52.084 21.31 52.097 21.149 52.11 20.985C52.188 20.449 52.24 19.907 52.271 19.357C52.294 18.981 52.307 18.604 52.307 18.221C52.307 17.282 52.24 16.359 52.11 15.457C50.845 6.705 43.666 0 35 0Z" fill="#f4d47c"/>
<path d="M48.587 74.773C48.587 74.116 48.094 73.572 47.472 73.512L45.423 73.169C45.227 72.535 44.972 71.922 44.665 71.336L45.853 69.67C46.268 69.161 46.23 68.43 45.767 67.969L43.444 65.647C43.205 65.407 42.886 65.276 42.547 65.276C42.254 65.276 41.968 65.376 41.768 65.545L40.077 66.752C39.491 66.442 38.876 66.189 38.244 65.991L37.908 63.972C37.842 63.322 37.3 62.829 36.64 62.829H33.357C32.703 62.829 32.159 63.321 32.098 63.942L31.757 65.99C31.122 66.187 30.509 66.441 29.922 66.751L28.256 65.559C28.03 65.375 27.745 65.284 27.459 65.284C27.127 65.284 26.796 65.407 26.555 65.647L24.233 67.969C23.766 68.431 23.731 69.164 24.128 69.647L25.336 71.336C25.029 71.922 24.773 72.535 24.577 73.169L22.557 73.506C21.905 73.571 21.413 74.115 21.413 74.773V78.056C21.413 78.714 21.905 79.257 22.528 79.317L24.577 79.66C24.771 80.289 25.029 80.904 25.336 81.493L24.149 83.158C23.73 83.664 23.769 84.396 24.232 84.861L26.554 87.182C26.794 87.42 27.112 87.555 27.452 87.555C27.745 87.555 28.029 87.452 28.231 87.284L29.921 86.077C30.509 86.388 31.121 86.642 31.756 86.838L32.091 88.857C32.159 89.509 32.703 90 33.357 90H36.64C37.299 90 37.841 89.509 37.901 88.888L38.244 86.839C38.876 86.644 39.491 86.389 40.077 86.078L41.742 87.266C41.969 87.454 42.256 87.544 42.543 87.544C42.875 87.544 43.206 87.421 43.445 87.181L45.766 84.86C46.231 84.397 46.269 83.665 45.872 83.181L44.665 81.493C44.972 80.907 45.227 80.292 45.423 79.657L47.44 79.317C48.094 79.257 48.587 78.714 48.587 78.056V74.773V74.773ZM34.999 81.848C32.003 81.848 29.565 79.412 29.565 76.413C29.565 73.417 32.003 70.98 34.999 70.98C37.997 70.98 40.435 73.417 40.435 76.413C40.435 79.412 37.996 81.848 34.999 81.848Z" fill="#f4d47c"/>
</svg>
