<svg width="257" height="90" viewBox="0 0 257 90" fill="none" xmlns="http://www.w3.org/2000/svg">
<path d="M108.877 54.8712C107.474 56.5213 105.415 57.3463 102.699 57.3463C100.452 57.3463 98.7367 56.6967 97.5544 55.3974C96.3851 54.0852 95.7939 52.1493 95.7809 49.5897V35.8696H99.3863V49.4923C99.3863 52.6885 100.686 54.2865 103.284 54.2865C106.039 54.2865 107.87 53.2601 108.78 51.2073V35.8696H112.385V56.9565H108.955L108.877 54.8712ZM122.773 30.7636V35.8696H126.71V38.6565H122.773V51.7335C122.773 52.578 122.948 53.2147 123.299 53.6434C123.65 54.0592 124.248 54.2671 125.092 54.2671C125.508 54.2671 126.079 54.1891 126.807 54.0332V56.9565C125.859 57.2164 124.936 57.3463 124.04 57.3463C122.429 57.3463 121.214 56.8591 120.395 55.8846C119.577 54.9102 119.167 53.5265 119.167 51.7335V38.6565H115.328V35.8696H119.167V30.7636H122.773ZM134.544 38.4227C136.142 36.4608 138.221 35.4799 140.781 35.4799C145.237 35.4799 147.485 37.9939 147.524 43.022V56.9565H143.918V43.0025C143.905 41.4824 143.554 40.3586 142.866 39.631C142.19 38.9034 141.131 38.5396 139.689 38.5396C138.52 38.5396 137.493 38.8514 136.61 39.4751C135.726 40.0987 135.038 40.9172 134.544 41.9307V56.9565H130.939V27.0217H134.544V38.4227ZM174.438 53.2342C173.476 54.6114 172.131 55.6443 170.403 56.3329C168.688 57.0085 166.688 57.3463 164.401 57.3463C162.088 57.3463 160.035 56.8071 158.242 55.7287C156.45 54.6373 155.059 53.0912 154.072 51.0904C153.097 49.0895 152.597 46.7704 152.571 44.1329V41.6578C152.571 37.3833 153.565 34.0702 155.553 31.7185C157.554 29.3669 160.36 28.1911 163.972 28.1911C166.934 28.1911 169.319 28.9511 171.125 30.4712C172.931 31.9784 174.035 34.1221 174.438 36.9025H170.696C169.994 33.1477 167.76 31.2703 163.992 31.2703C161.484 31.2703 159.581 32.1538 158.281 33.9208C156.995 35.6748 156.346 38.2213 156.333 41.5604V43.8795C156.333 47.0627 157.06 49.5962 158.515 51.4802C159.97 53.3511 161.939 54.2865 164.42 54.2865C165.824 54.2865 167.051 54.1306 168.104 53.8188C169.156 53.507 170.027 52.9808 170.715 52.2402V45.8674H164.148V42.8271H174.438V53.2342ZM193.147 54.8712C191.744 56.5213 189.684 57.3463 186.969 57.3463C184.721 57.3463 183.006 56.6967 181.824 55.3974C180.655 54.0852 180.063 52.1493 180.05 49.5897V35.8696H183.656V49.4923C183.656 52.6885 184.955 54.2865 187.554 54.2865C190.308 54.2865 192.14 53.2601 193.049 51.2073V35.8696H196.655V56.9565H193.225L193.147 54.8712ZM206.068 56.9565H202.463V35.8696H206.068V56.9565ZM202.17 30.2764C202.17 29.6917 202.346 29.198 202.696 28.7952C203.06 28.3924 203.593 28.1911 204.294 28.1911C204.996 28.1911 205.529 28.3924 205.893 28.7952C206.256 29.198 206.438 29.6917 206.438 30.2764C206.438 30.861 206.256 31.3482 205.893 31.738C205.529 32.1278 204.996 32.3227 204.294 32.3227C203.593 32.3227 203.06 32.1278 202.696 31.738C202.346 31.3482 202.17 30.861 202.17 30.2764ZM210.979 46.2377C210.979 43.0025 211.746 40.404 213.279 38.4422C214.812 36.4673 216.819 35.4799 219.301 35.4799C221.769 35.4799 223.725 36.3244 225.167 38.0134V27.0217H228.772V56.9565H225.459L225.284 54.6958C223.842 56.4628 221.834 57.3463 219.262 57.3463C216.819 57.3463 214.825 56.3459 213.279 54.345C211.746 52.3442 210.979 49.7327 210.979 46.5105V46.2377ZM214.585 46.6469C214.585 49.0376 215.078 50.9085 216.066 52.2597C217.053 53.6109 218.417 54.2865 220.158 54.2865C222.445 54.2865 224.115 53.2601 225.167 51.2073V41.5214C224.089 39.5335 222.432 38.5396 220.197 38.5396C218.43 38.5396 217.053 39.2217 216.066 40.5859C215.078 41.9501 214.585 43.9705 214.585 46.6469ZM243.136 57.3463C240.277 57.3463 237.952 56.4108 236.159 54.5399C234.366 52.656 233.469 50.1419 233.469 46.9977V46.3351C233.469 44.2433 233.865 42.3789 234.658 40.7418C235.464 39.0918 236.581 37.8055 238.01 36.8831C239.452 35.9476 241.011 35.4799 242.687 35.4799C245.429 35.4799 247.56 36.3828 249.08 38.1888C250.6 39.9948 251.36 42.5803 251.36 45.9453V47.446H237.075C237.127 49.5248 237.731 51.2073 238.887 52.4936C240.056 53.7668 241.538 54.4035 243.331 54.4035C244.604 54.4035 245.682 54.1436 246.566 53.6239C247.449 53.1042 248.222 52.4156 248.885 51.5581L251.087 53.2731C249.32 55.9886 246.67 57.3463 243.136 57.3463ZM242.687 38.4422C241.232 38.4422 240.011 38.9749 239.024 40.0402C238.036 41.0926 237.425 42.5738 237.192 44.4837H247.754V44.2108C247.651 42.3789 247.157 40.9627 246.273 39.9623C245.39 38.9489 244.195 38.4422 242.687 38.4422Z" fill="#f4d47c"/>
<circle cx="44.9022" cy="44.9022" r="43.499" fill="#FEFEFE" stroke="#f4d47c" stroke-width="2.80639"/>
<path d="M54.3103 54.9153H35.8435L31.6961 66.4192H25.7019L42.534 22.341H47.6199L64.4822 66.4192H58.5183L54.3103 54.9153ZM37.5994 50.132H52.5847L45.0769 29.5158L37.5994 50.132Z" fill="#555555"/>
</svg>
